<?xml version="1.0" standalone="no"?>
<!DOCTYPE svg PUBLIC "-//W3C//DTD SVG 20010904//EN"
 "http://www.w3.org/TR/2001/REC-SVG-20010904/DTD/svg10.dtd">
<svg version="1.0" xmlns="http://www.w3.org/2000/svg"
 width="16.000000pt" height="16.000000pt" viewBox="0 0 16.000000 16.000000"
 preserveAspectRatio="xMidYMid meet">
<metadata>
Created by potrace 1.11, written by Peter Selinger 2001-2013
</metadata>
<g transform="translate(0.000000,16.000000) scale(0.006130,-0.006130)"
fill="#000000" stroke="none">
<path d="M1047 2454 c-1 -1 -47 -5 -102 -8 -55 -4 -119 -9 -142 -12 -82 -8
-138 -14 -183 -20 -44 -6 -325 -50 -365 -58 -11 -2 -39 -7 -62 -11 -24 -4 -43
-12 -43 -17 0 -14 122 -257 168 -333 100 -167 367 -499 539 -670 177 -176 341
-274 605 -364 234 -79 284 -99 365 -148 109 -64 128 -87 159 -193 37 -127 40
-265 7 -325 -24 -45 -66 -93 -103 -118 -13 -9 -20 -17 -15 -17 20 0 119 74
170 126 96 99 141 209 161 389 3 28 8 53 10 57 3 4 -5 12 -17 19 -21 11 -52 9
-150 -7 -34 -5 -39 -2 -95 58 -145 156 -300 302 -434 410 -197 157 -207 170
-234 290 -14 60 -14 62 2 41 9 -11 33 -47 52 -78 46 -75 99 -125 192 -182 42
-27 131 -91 198 -143 147 -115 160 -123 193 -111 38 15 52 63 51 177 -3 140
-33 202 -137 282 -140 108 -272 270 -317 389 -13 34 -22 83 -23 119 -1 80 39
166 118 249 55 60 56 60 36 20 -27 -58 -50 -141 -55 -205 -5 -69 23 -183 60
-242 41 -66 152 -168 242 -221 89 -54 296 -146 327 -147 81 -1 107 126 57 273
-10 31 -15 54 -11 51 14 -8 114 -166 144 -227 16 -32 32 -60 36 -63 13 -8 8
219 -6 292 -48 245 -182 415 -420 529 -81 39 -221 87 -294 100 -14 3 -37 7
-51 10 -14 3 -45 8 -70 11 -25 3 -52 7 -60 9 -39 11 -492 28 -503 19z"/>
<path d="M2431 1374 c0 -11 3 -14 6 -6 3 7 2 16 -1 19 -3 4 -6 -2 -5 -13z"/>
<path d="M2371 1124 c0 -11 3 -14 6 -6 3 7 2 16 -1 19 -3 4 -6 -2 -5 -13z"/>
</g>
</svg>
